<?xml version="1.0" standalone="no"?>
<!DOCTYPE svg PUBLIC "-//W3C//DTD SVG 20010904//EN"
 "http://www.w3.org/TR/2001/REC-SVG-20010904/DTD/svg10.dtd">
<svg version="1.0" xmlns="http://www.w3.org/2000/svg"
 width="700.000000pt" height="700.000000pt" viewBox="0 0 700.000000 700.000000"
 preserveAspectRatio="xMidYMid meet">
<metadata>
Created by potrace 1.14, written by Peter Selinger 2001-2017
</metadata>
<g transform="translate(0.000000,700.000000) scale(0.100000,-0.100000)"
fill="#000000" stroke="none">
<path d="M1340 6977 c-3 -3 -72 -8 -155 -11 -82 -4 -166 -8 -185 -10 -19 -2
-73 -7 -120 -11 -47 -3 -98 -8 -115 -10 -126 -16 -155 -16 -149 0 5 12 0 14
-27 10 -51 -7 -107 -14 -179 -20 -36 -4 -72 -8 -80 -10 -14 -4 -157 -17 -187
-18 -15 0 -14 4 -15 -209 l-1 -158 -48 0 c-68 0 -82 -7 -60 -29 11 -11 21 -43
26 -82 5 -35 9 -66 10 -69 0 -3 5 -34 9 -70 4 -36 10 -74 12 -85 2 -11 6 -44
9 -73 4 -29 8 -63 11 -75 2 -12 6 -46 10 -75 3 -29 7 -63 10 -75 2 -12 6 -51
10 -87 3 -36 7 -72 9 -80 3 -18 12 -93 20 -170 4 -30 8 -66 10 -80 2 -14 6
-56 10 -95 3 -38 7 -81 10 -95 2 -14 7 -56 10 -95 6 -71 12 -137 20 -210 2
-22 7 -76 10 -120 3 -44 7 -98 10 -120 6 -49 17 -198 30 -410 4 -55 8 -118 10
-140 2 -22 6 -101 10 -175 4 -74 8 -162 10 -195 27 -447 27 -1658 -1 -1995 -2
-30 -6 -210 -8 -400 l-3 -345 17 100 17 100 3 -115 c2 -63 5 -98 7 -78 2 21 8
38 13 38 5 0 7 -10 5 -22 -2 -13 -6 -86 -9 -163 -4 -78 -8 -152 -11 -165 -3
-14 -1 -20 4 -14 8 8 15 51 26 154 12 118 16 153 20 210 3 36 7 90 10 120 3
30 7 91 10 135 3 44 7 109 10 145 2 36 7 108 10 160 2 52 7 131 10 175 5 75 7
113 19 355 10 193 16 308 21 425 9 200 16 330 20 333 13 13 20 -234 20 -723
-1 -552 -6 -803 -30 -1470 -6 -181 -2 -224 9 -105 4 36 9 81 11 100 2 19 7 73
10 120 3 47 8 110 10 140 4 54 12 193 20 340 16 303 18 331 30 620 3 80 8 177
10 215 2 39 7 158 11 265 3 107 8 218 9 245 2 28 4 91 6 140 2 84 3 87 9 35
l7 -55 2 70 c7 224 15 985 15 1455 1 601 -3 699 -39 1000 -18 141 -22 192 -40
465 -8 120 -14 198 -31 385 -4 41 -8 93 -8 115 l-1 40 45 3 c24 2 46 5 49 8 3
2 6 25 7 50 1 25 5 48 7 51 6 5 38 9 152 18 50 4 102 8 117 10 14 2 64 6 110
10 46 3 110 8 143 11 69 6 112 10 245 19 52 3 115 8 140 10 25 2 90 6 145 10
55 3 125 8 155 10 30 2 111 7 180 11 69 3 148 8 175 9 46 3 314 15 430 20 669
28 2116 27 2445 -1 62 -5 870 -14 870 -9 0 1 -45 8 -100 15 -55 7 -100 15
-100 19 0 4 53 6 118 5 64 -1 105 0 90 3 -52 8 -28 21 35 18 34 -2 126 -6 205
-10 78 -3 150 -8 160 -11 14 -5 14 -4 2 4 -8 5 -44 13 -80 17 -36 3 -78 8 -95
10 -16 2 -66 7 -110 10 -44 3 -96 8 -115 10 -19 2 -84 7 -145 10 -60 3 -132 8
-160 10 -44 4 -93 7 -340 20 -33 2 -121 6 -195 10 -74 3 -171 8 -215 10 -74 3
-215 10 -440 20 -218 10 -530 22 -688 26 -127 3 -94 18 59 27 235 13 1421 6
2000 -13 60 -2 225 -6 367 -10 142 -4 272 -8 288 -9 16 -1 26 1 22 5 -5 4 -44
10 -88 13 -44 3 -118 9 -165 12 -129 10 -154 11 -300 19 -74 3 -166 8 -205 10
-115 7 -291 15 -440 20 -77 3 -183 7 -235 10 -52 2 -174 7 -270 10 -96 3 -218
8 -270 10 -52 2 -187 7 -300 11 -113 3 -243 7 -290 9 -47 2 -130 5 -185 6
l-100 3 80 6 c75 6 71 7 -55 9 -540 11 -2323 24 -2330 18z m4560 -308 c0 -4
-12 -5 -27 -3 -39 7 -41 13 -4 12 17 -1 31 -5 31 -9z m-5293 -3701 c-3 -8 -6
-5 -6 6 -1 11 2 17 5 13 3 -3 4 -12 1 -19z m-266 -1821 c-10 -9 -11 -8 -5 6 3
10 9 15 12 12 3 -3 0 -11 -7 -18z"/>
<path d="M3878 6953 c7 -3 16 -2 19 1 4 3 -2 6 -13 5 -11 0 -14 -3 -6 -6z"/>
<path d="M3978 6953 c6 -2 18 -2 25 0 6 3 1 5 -13 5 -14 0 -19 -2 -12 -5z"/>
<path d="M4288 6943 c7 -3 16 -2 19 1 4 3 -2 6 -13 5 -11 0 -14 -3 -6 -6z"/>
<path d="M4348 6943 c6 -2 18 -2 25 0 6 3 1 5 -13 5 -14 0 -19 -2 -12 -5z"/>
<path d="M4443 6943 c31 -2 83 -2 115 0 31 2 5 3 -58 3 -63 0 -89 -1 -57 -3z"/>
<path d="M4620 6946 c0 -7 61 -13 65 -6 2 3 -12 7 -31 8 -19 2 -34 1 -34 -2z"/>
<path d="M4706 6941 c8 -8 104 -11 104 -3 0 4 -25 7 -55 7 -30 1 -52 -1 -49
-4z"/>
<path d="M4840 6939 c-14 -4 33 -8 110 -9 74 -1 171 -3 215 -5 44 -2 181 -6
305 -9 124 -3 281 -8 350 -11 69 -3 208 -7 310 -10 102 -3 243 -8 315 -11 71
-3 127 -3 125 -1 -17 16 -503 34 -1350 52 -190 4 -347 8 -350 10 -3 1 -16 -1
-30 -6z"/>
<path d="M6679 6630 c-47 -16 -112 -24 -269 -35 -54 -4 -56 -5 -37 -19 17 -13
29 -64 42 -171 3 -27 8 -63 10 -80 3 -16 7 -46 9 -65 3 -19 9 -71 15 -115 6
-44 13 -102 16 -130 6 -56 10 -86 25 -200 5 -44 12 -105 15 -135 5 -54 11
-107 20 -185 7 -56 13 -119 20 -200 3 -38 8 -88 10 -110 2 -22 7 -71 10 -110
3 -38 8 -88 10 -110 10 -95 19 -209 30 -370 3 -44 7 -102 10 -130 2 -27 7 -99
10 -160 4 -60 9 -137 11 -170 4 -56 10 -171 19 -375 27 -604 26 -1863 -1
-2095 -3 -22 -7 -202 -8 -400 -3 -318 -2 -352 10 -290 7 39 13 85 13 104 1 19
4 32 7 28 4 -3 6 -55 5 -114 -2 -104 5 -141 10 -55 4 65 15 59 12 -6 -3 -122
-15 -336 -19 -355 -2 -11 0 -17 3 -13 4 4 8 12 9 19 1 7 4 37 8 67 4 30 9 69
11 85 6 50 30 345 40 490 14 221 19 306 30 510 3 55 7 136 10 180 2 44 7 132
10 195 3 63 7 156 10 205 2 50 7 153 10 230 10 231 15 329 19 333 14 13 21
-228 21 -718 0 -567 -6 -871 -30 -1555 -3 -104 -4 -187 -1 -185 6 7 19 132 31
310 3 41 7 104 10 140 9 130 18 291 40 750 1 41 6 156 10 255 3 99 8 207 10
240 2 33 7 150 11 260 3 110 8 232 9 270 2 39 5 106 6 150 l2 80 7 -60 c6 -55
7 -52 9 40 21 1023 20 2185 -3 2325 -3 14 -7 54 -10 90 -6 74 -15 151 -21 195
-5 36 -12 127 -20 250 -7 99 -12 177 -20 275 -3 36 -8 101 -10 145 -3 44 -7
98 -10 120 -2 22 -6 72 -10 110 -3 39 -8 86 -10 105 -3 19 -7 55 -10 80 -9 70
-11 79 -16 84 -16 14 -111 12 -160 -4z m288 -3742 c-3 -8 -6 -5 -6 6 -1 11 2
17 5 13 3 -3 4 -12 1 -19z"/>
<path d="M6030 6600 c8 -5 22 -10 30 -10 13 0 13 1 0 10 -8 5 -22 10 -30 10
-13 0 -13 -1 0 -10z"/>
<path d="M2517 6254 c-1 -1 -92 -4 -202 -8 -110 -3 -216 -8 -235 -10 -19 -3
-75 -7 -124 -11 -49 -3 -92 -7 -95 -9 -3 -2 -53 -7 -111 -10 -58 -4 -139 -9
-180 -11 -41 -2 -122 -7 -180 -10 -58 -3 -121 -8 -140 -10 -19 -2 -75 -7 -125
-10 -119 -9 -171 -13 -222 -20 l-41 -6 3 -57 c3 -56 8 -96 18 -137 3 -11 8
-56 11 -100 4 -44 9 -87 11 -95 2 -8 7 -54 10 -102 3 -49 8 -96 10 -105 1 -10
6 -65 10 -123 4 -58 8 -112 10 -120 2 -8 6 -63 10 -122 3 -59 8 -119 10 -135
2 -15 6 -84 10 -153 4 -69 8 -141 10 -160 3 -37 16 -265 20 -360 16 -381 20
-564 19 -1090 0 -338 -4 -726 -8 -861 -5 -173 -4 -249 3 -254 6 -3 11 -20 11
-36 0 -17 4 -28 8 -25 5 3 9 -1 9 -9 0 -8 -4 -12 -9 -9 -4 3 -8 -2 -8 -11 0
-10 5 -13 12 -9 9 6 9 3 0 -9 -8 -9 -11 -21 -7 -28 4 -6 7 -47 6 -90 -1 -50 4
-91 13 -114 16 -37 29 -110 35 -194 1 -10 5 -10 13 -3 7 6 45 13 83 17 39 4
81 8 95 10 14 2 61 7 105 11 44 3 87 8 95 9 8 2 53 6 100 10 47 4 101 8 120
10 19 2 69 6 110 9 41 4 102 9 134 12 33 3 89 7 125 9 37 2 93 7 126 9 106 9
274 20 465 31 58 3 132 8 165 10 59 4 251 13 450 21 486 19 1297 24 1705 10
340 -12 710 -15 710 -5 0 4 -17 10 -37 12 -22 3 -14 4 20 3 31 0 57 2 57 6 0
5 73 6 162 3 89 -3 159 -3 157 -1 -2 2 -42 7 -89 10 -47 4 -105 9 -130 11 -25
2 -101 6 -170 10 -69 3 -154 8 -190 10 -36 2 -135 7 -220 11 -166 7 -214 9
-500 19 -102 4 -221 8 -265 10 -44 2 -131 4 -193 6 -62 1 -108 5 -102 9 31 19
999 16 1790 -6 107 -3 193 -3 190 -1 -5 5 -132 14 -315 22 -60 3 -153 7 -205
10 -142 6 -462 18 -486 18 -21 -1 -21 3 -19 141 2 150 -12 275 -44 388 -11 38
-17 77 -14 85 4 10 2 14 -5 9 -13 -8 -26 29 -16 45 4 8 3 9 -4 5 -11 -6 -17
13 -13 37 1 5 -4 5 -10 1 -9 -5 -10 -2 -6 10 4 9 3 15 -1 12 -4 -2 -12 7 -19
20 -7 15 -7 22 -1 18 7 -4 7 -2 2 8 -127 207 -318 367 -519 432 -63 20 -111
26 -200 26 -103 -1 -270 -16 -287 -26 -4 -3 -8 1 -8 8 0 9 -3 9 -10 -2 -5 -8
-10 -10 -10 -4 0 5 4 14 10 20 7 7 21 99 23 159 0 6 -10 45 -24 88 -18 60 -29
79 -46 84 -23 8 -22 10 31 83 125 174 227 431 262 660 3 19 7 41 9 47 7 20 19
183 18 247 l0 59 18 -34 c24 -45 24 -22 -1 50 -11 32 -22 78 -25 101 -11 92
-26 159 -51 225 l-14 40 41 -45 c51 -55 127 -166 179 -263 33 -59 39 -66 33
-37 -20 109 -163 340 -288 466 -119 120 -192 174 -329 240 -49 24 -82 44 -72
44 25 0 163 -56 196 -80 16 -11 31 -20 35 -20 3 0 39 -24 80 -54 146 -109 286
-276 400 -481 61 -107 65 -95 7 20 -90 181 -273 399 -444 532 -86 66 -232 136
-328 158 -95 22 -142 28 -225 32 -133 6 -119 6 -209 -11 -118 -23 -181 -43
-265 -86 -191 -96 -325 -244 -392 -437 -21 -60 -22 -65 -38 -148 -26 -133 -34
-421 -12 -434 6 -4 24 -59 40 -123 73 -288 228 -570 407 -737 36 -34 64 -65
61 -67 -3 -3 -31 -14 -62 -23 l-57 -18 43 -26 c65 -38 100 -87 113 -159 3 -21
0 -24 -28 -26 -17 -1 -41 -4 -53 -6 -12 -3 -43 -8 -70 -11 -85 -12 -244 -55
-329 -90 -227 -91 -414 -253 -530 -460 -50 -88 -116 -240 -142 -325 -26 -86
-39 -195 -21 -185 8 6 11 4 6 -7 -3 -9 0 -21 6 -28 9 -10 9 -11 -3 -5 -12 6
-12 5 -3 -5 7 -8 8 -22 3 -41 -5 -16 -5 -29 0 -29 4 0 11 21 15 48 21 143 119
405 189 508 33 49 33 40 0 -39 -69 -163 -96 -256 -123 -427 -6 -36 -11 -82
-11 -102 0 -29 -4 -38 -17 -39 -10 -1 -29 -3 -43 -4 -14 -2 -90 -6 -170 -10
-215 -9 -400 -20 -544 -31 -48 -4 -77 -3 -73 3 3 5 1 15 -4 23 -9 13 -10 13
-8 0 3 -28 -1 -40 -12 -40 -8 0 -10 35 -5 122 3 68 8 195 12 283 3 88 7 198 9
245 2 47 4 122 4 168 1 60 4 81 13 76 7 -5 8 -3 2 7 -13 21 -5 362 9 371 9 6
9 8 -1 8 -9 0 -10 5 -3 18 7 13 7 22 -1 30 -8 8 -8 15 1 26 9 11 9 15 -1 19
-9 4 -10 8 -3 14 26 20 26 1624 1 1828 -4 30 -12 145 -21 310 -13 244 -16 284
-19 338 -4 48 -2 57 12 58 9 0 24 2 32 3 8 2 49 6 90 10 41 4 82 9 90 11 8 2
51 6 95 10 44 4 94 8 110 10 17 2 59 6 95 9 36 3 94 9 130 12 95 10 116 12
210 19 47 4 101 8 120 10 19 2 71 7 115 10 44 3 107 7 140 10 125 10 240 17
500 31 66 3 147 7 180 9 404 21 1527 28 1860 11 222 -12 625 -14 625 -4 0 3
-15 9 -32 11 -18 2 -1 5 38 5 39 1 74 5 78 9 4 4 25 8 46 9 44 1 45 0 55 -86
4 -30 9 -63 11 -73 2 -10 6 -48 10 -85 3 -36 7 -73 9 -82 4 -24 15 -111 20
-165 2 -27 7 -72 10 -100 6 -53 10 -86 20 -205 4 -41 8 -86 10 -100 2 -14 6
-56 9 -95 13 -173 18 -243 21 -277 2 -20 7 -88 10 -150 3 -62 7 -138 10 -168
5 -62 14 -264 20 -450 6 -162 6 -860 0 -970 -9 -160 -18 -695 -12 -690 3 3 7
25 8 48 2 24 6 45 9 47 4 2 6 -11 5 -30 -2 -19 2 -35 7 -35 6 0 4 -8 -3 -17
-9 -11 -10 -14 -2 -9 10 5 12 -17 7 -101 -3 -59 -7 -115 -10 -123 -3 -10 -2
-11 4 -5 6 6 13 42 16 80 4 39 8 86 10 105 2 19 7 82 10 140 4 58 9 132 11
165 6 74 13 192 20 350 3 66 8 156 10 200 6 129 18 397 19 432 0 20 4 29 10
23 6 -6 10 -169 10 -407 0 -353 -4 -542 -18 -1068 -6 -211 10 -61 29 270 11
181 14 243 20 410 4 94 8 195 10 225 2 30 7 150 10 265 5 139 11 212 19 217 7
5 6 8 -4 8 -12 0 -13 2 -1 9 11 7 11 10 0 15 -11 5 -11 7 -1 12 9 4 10 9 2 19
-8 9 -8 15 0 20 5 3 10 11 10 16 0 6 -6 7 -12 3 -10 -6 -10 -4 0 8 23 29 21
1598 -3 1638 -4 7 -16 154 -30 370 -5 89 -12 182 -20 265 -2 28 -7 82 -10 120
-4 39 -9 78 -11 88 -3 10 0 17 8 17 9 1 9 3 -2 10 -9 5 -94 11 -190 15 -96 3
-197 7 -225 9 -57 4 -266 14 -430 21 -295 12 -383 15 -545 21 -96 3 -220 7
-275 9 -55 2 -140 4 -190 5 -56 1 -82 4 -70 9 14 6 7 8 -25 8 -37 0 -41 -1
-20 -8 24 -8 24 -8 -5 -6 -16 1 -35 5 -41 9 -6 4 -300 10 -655 14 -354 3 -684
7 -732 7 -49 1 -89 1 -90 1z m2943 -109 c52 -1 154 -4 227 -6 137 -4 164 -11
65 -17 -57 -4 -78 -11 -54 -19 6 -3 12 -16 12 -29 0 -24 -2 -25 -52 -20 -29 3
-93 8 -143 11 -49 3 -117 8 -150 10 -33 3 -121 7 -195 11 -74 3 -157 7 -185 9
-27 2 -124 6 -215 10 -91 4 -190 8 -220 10 -50 3 -465 18 -517 19 -13 0 -23 3
-23 8 0 4 28 9 63 11 72 4 1245 -2 1387 -8z m148 -112 c-10 -2 -26 -2 -35 0
-10 3 -2 5 17 5 19 0 27 -2 18 -5z m-143 -13 c3 -5 1 -10 -4 -10 -6 0 -11 5
-11 10 0 6 2 10 4 10 3 0 8 -4 11 -10z m-1636 -809 c36 -22 91 -65 121 -97 57
-60 49 -58 -35 12 -59 48 -95 69 -114 65 -7 -1 -10 2 -7 7 3 6 -12 17 -34 26
-45 18 -51 26 -18 26 12 0 51 -18 87 -39z m89 -6 c88 -40 142 -92 191 -185 36
-67 63 -140 53 -140 -11 0 -53 57 -96 128 -46 77 -124 158 -191 200 -65 41
-52 40 43 -3z m-218 -303 c131 -42 204 -69 267 -99 80 -39 146 -90 137 -104
-3 -5 0 -8 8 -7 19 4 25 -202 6 -214 -10 -6 -10 -8 2 -8 13 0 13 -1 0 -10 -8
-5 -10 -10 -5 -10 7 0 9 -15 7 -35 -2 -19 -7 -33 -11 -30 -4 2 -5 -9 -3 -25 2
-17 1 -38 -3 -47 -5 -10 -7 -29 -6 -42 2 -13 -2 -21 -7 -17 -6 4 -8 -2 -5 -14
3 -11 0 -20 -6 -20 -5 0 -8 -7 -5 -15 3 -8 -1 -28 -9 -45 -9 -17 -11 -27 -4
-23 6 4 1 -10 -11 -31 -12 -20 -18 -35 -13 -32 5 4 7 -3 4 -14 -3 -11 -9 -20
-14 -20 -5 0 -8 -3 -7 -7 3 -15 -14 -63 -23 -63 -5 0 -5 -7 -2 -17 5 -12 3
-14 -7 -8 -10 6 -12 4 -7 -8 3 -10 2 -17 -4 -17 -6 0 -7 -4 -4 -10 3 -5 1 -10
-5 -10 -6 0 -9 -4 -6 -9 4 -5 2 -11 -3 -13 -5 -1 -11 -10 -13 -18 -2 -8 -5
-17 -8 -20 -3 -3 -26 -36 -50 -75 -66 -103 -156 -189 -237 -228 -62 -29 -76
-32 -163 -31 -80 0 -104 4 -150 26 -226 105 -417 378 -520 743 -31 111 -30
125 8 195 63 114 141 193 279 284 198 129 300 166 458 162 55 -1 116 -8 135
-14z m496 -351 c-8 -208 -46 -395 -117 -574 -48 -123 -72 -155 -31 -42 75 203
116 432 115 637 0 66 2 75 13 60 12 -15 13 -15 14 -1 0 9 -7 34 -15 55 l-16
39 21 -24 c19 -22 20 -33 16 -150z m-387 -1172 c18 -60 38 -170 35 -199 -1
-14 -5 -53 -9 -87 -7 -59 -6 -62 13 -58 16 3 19 -1 16 -18 -3 -12 4 -4 14 18
l19 40 16 -74 c10 -40 17 -79 17 -86 0 -9 17 -6 58 10 31 13 71 27 87 31 l30
7 -40 -43 c-87 -92 -248 -195 -345 -220 -76 -20 -83 -21 -160 -24 -134 -6
-295 48 -425 142 -55 40 -165 141 -165 152 0 3 19 7 43 8 62 4 77 11 77 36 0
13 11 36 25 52 25 29 65 105 65 124 0 5 5 10 10 10 15 0 12 -61 -6 -114 -24
-69 -10 -67 23 3 16 34 33 58 37 54 4 -4 4 -1 1 8 -3 8 1 32 10 52 8 20 15 64
15 97 0 33 3 60 6 60 3 0 29 -7 57 -15 135 -38 303 -16 418 54 19 12 37 21 40
21 3 0 11 -18 18 -41z m-2683 -656 c-5 -540 -9 -767 -15 -794 0 -4 -15 -9 -32
-11 l-31 -5 7 91 c3 50 8 116 10 146 2 30 7 122 10 204 4 83 8 175 10 205 2
31 7 153 11 271 4 118 8 242 9 275 2 33 3 102 4 153 1 58 5 92 12 92 7 0 9
-184 5 -627z m1981 465 c-3 -8 -6 -5 -6 6 -1 11 2 17 5 13 3 -3 4 -12 1 -19z
m833 -13 c0 -7 -7 -16 -16 -19 -12 -5 -15 -2 -10 10 3 8 6 20 6 25 0 6 5 7 10
4 6 -3 10 -12 10 -20z m1084 -580 c67 -137 100 -294 105 -492 2 -103 1 -113
-16 -114 -16 -1 -17 -2 0 -6 37 -10 14 -20 -43 -19 -33 1 -60 4 -60 9 0 4 6 7
13 8 10 0 10 2 0 6 -7 2 -13 20 -13 39 0 20 5 34 13 35 10 0 10 2 0 6 -9 3
-13 24 -12 61 2 55 2 56 9 17 4 -22 8 -31 9 -20 2 11 5 15 8 7 2 -6 8 -10 13
-7 4 3 7 -18 6 -45 -2 -28 1 -50 6 -50 8 0 11 60 9 190 -2 141 -35 294 -92
419 -16 35 -29 67 -29 70 1 15 42 -50 74 -114z m-2837 -86 c-6 -19 -16 -37
-20 -40 -5 -3 -8 -9 -8 -13 3 -23 0 -36 -9 -31 -5 3 -7 0 -4 -9 8 -22 -15 -88
-28 -80 -7 4 -8 2 -4 -5 4 -6 4 -25 1 -43 -5 -23 -9 -27 -17 -17 -6 10 -7 4
-4 -19 2 -18 0 -30 -5 -26 -5 3 -9 0 -9 -7 0 -25 -42 -169 -50 -169 -11 0 35
195 70 295 29 81 90 208 97 201 1 -1 -3 -18 -10 -37z"/>
<path d="M3221 3073 c-1 -6 -4 -20 -7 -30 -5 -17 -5 -17 6 0 6 10 9 23 6 30
-3 9 -5 9 -5 0z"/>
<path d="M5068 1983 c7 -3 16 -2 19 1 4 3 -2 6 -13 5 -11 0 -14 -3 -6 -6z"/>
<path d="M4558 6223 c7 -3 16 -2 19 1 4 3 -2 6 -13 5 -11 0 -14 -3 -6 -6z"/>
<path d="M4693 6223 c9 -2 23 -2 30 0 6 3 -1 5 -18 5 -16 0 -22 -2 -12 -5z"/>
<path d="M4753 6223 c9 -2 23 -2 30 0 6 3 -1 5 -18 5 -16 0 -22 -2 -12 -5z"/>
<path d="M4818 6223 c7 -3 16 -2 19 1 4 3 -2 6 -13 5 -11 0 -14 -3 -6 -6z"/>
<path d="M4870 6219 c0 -5 5 -7 10 -4 6 3 10 8 10 11 0 2 -4 4 -10 4 -5 0 -10
-5 -10 -11z"/>
<path d="M4970 6219 c0 -5 11 -9 25 -9 14 0 25 2 25 4 0 2 -11 6 -25 8 -14 3
-25 1 -25 -3z"/>
<path d="M5031 6216 c7 -7 219 -9 226 -2 4 3 -47 6 -112 6 -65 0 -116 -2 -114
-4z"/>
<path d="M5270 6211 c0 -3 32 -7 70 -7 39 -1 70 1 70 5 0 3 -32 7 -70 7 -39 1
-70 -1 -70 -5z"/>
<path d="M5420 6211 c0 -7 29 -11 73 -12 39 0 107 -2 150 -3 42 -2 77 0 77 4
0 3 -64 7 -142 9 -78 1 -145 4 -150 7 -4 3 -8 0 -8 -5z"/>
<path d="M5730 6198 c0 -3 45 -8 100 -10 55 -2 100 0 100 5 0 4 -33 7 -72 8
-40 0 -85 2 -100 3 -16 1 -28 -2 -28 -6z"/>
<path d="M5990 6190 c0 -5 5 -10 11 -10 5 0 7 5 4 10 -3 6 -8 10 -11 10 -2 0
-4 -4 -4 -10z"/>
<path d="M5550 6000 c0 -5 5 -10 11 -10 5 0 7 5 4 10 -3 6 -8 10 -11 10 -2 0
-4 -4 -4 -10z"/>
<path d="M5678 5983 c6 -2 18 -2 25 0 6 3 1 5 -13 5 -14 0 -19 -2 -12 -5z"/>
<path d="M6071 2984 c0 -11 3 -14 6 -6 3 7 2 16 -1 19 -3 4 -6 -2 -5 -13z"/>
<path d="M6071 2944 c0 -11 3 -14 6 -6 3 7 2 16 -1 19 -3 4 -6 -2 -5 -13z"/>
<path d="M6071 2884 c0 -11 3 -14 6 -6 3 7 2 16 -1 19 -3 4 -6 -2 -5 -13z"/>
<path d="M6069 2858 c-5 -18 -6 -38 -1 -34 7 8 12 36 6 36 -2 0 -4 -1 -5 -2z"/>
<path d="M6060 2780 c0 -5 5 -10 11 -10 5 0 7 5 4 10 -3 6 -8 10 -11 10 -2 0
-4 -4 -4 -10z"/>
<path d="M6972 2730 c0 -14 2 -19 5 -12 2 6 2 18 0 25 -3 6 -5 1 -5 -13z"/>
<path d="M6058 2624 c-2 -58 0 -111 4 -118 4 -6 8 42 8 107 0 64 -2 117 -4
117 -3 0 -6 -48 -8 -106z"/>
<path d="M612 2680 c0 -14 2 -19 5 -12 2 6 2 18 0 25 -3 6 -5 1 -5 -13z"/>
<path d="M1171 2674 c0 -11 3 -14 6 -6 3 7 2 16 -1 19 -3 4 -6 -2 -5 -13z"/>
<path d="M6972 2560 c0 -14 2 -19 5 -12 2 6 2 18 0 25 -3 6 -5 1 -5 -13z"/>
<path d="M6051 2343 c-1 -81 0 -146 2 -143 8 8 15 290 8 290 -4 0 -8 -66 -10
-147z"/>
<path d="M1165 2451 c-3 -5 -2 -12 3 -15 5 -3 9 1 9 9 0 17 -3 19 -12 6z"/>
<path d="M601 2434 c0 -11 3 -14 6 -6 3 7 2 16 -1 19 -3 4 -6 -2 -5 -13z"/>
<path d="M1161 2354 c0 -11 3 -14 6 -6 3 7 2 16 -1 19 -3 4 -6 -2 -5 -13z"/>
<path d="M602 2325 c0 -16 2 -22 5 -12 2 9 2 23 0 30 -3 6 -5 -1 -5 -18z"/>
<path d="M1161 2314 c0 -11 3 -14 6 -6 3 7 2 16 -1 19 -3 4 -6 -2 -5 -13z"/>
<path d="M601 2274 c0 -11 3 -14 6 -6 3 7 2 16 -1 19 -3 4 -6 -2 -5 -13z"/>
<path d="M1161 2274 c0 -11 3 -14 6 -6 3 7 2 16 -1 19 -3 4 -6 -2 -5 -13z"/>
<path d="M5162 2270 c0 -14 2 -19 5 -12 2 6 2 18 0 25 -3 6 -5 1 -5 -13z"/>
<path d="M603 2210 c0 -25 2 -35 4 -22 2 12 2 32 0 45 -2 12 -4 2 -4 -23z"/>
<path d="M1163 2175 c0 -44 2 -61 4 -37 2 23 2 59 0 80 -2 20 -4 1 -4 -43z"/>
<path d="M5163 2195 c0 -8 4 -12 9 -9 5 3 6 10 3 15 -9 13 -12 11 -12 -6z"/>
<path d="M6961 2194 c0 -11 3 -14 6 -6 3 7 2 16 -1 19 -3 4 -6 -2 -5 -13z"/>
<path d="M6040 2160 c0 -5 5 -10 10 -10 6 0 10 5 10 10 0 6 -4 10 -10 10 -5 0
-10 -4 -10 -10z"/>
<path d="M6961 2154 c0 -11 3 -14 6 -6 3 7 2 16 -1 19 -3 4 -6 -2 -5 -13z"/>
<path d="M1012 2135 c0 -16 2 -22 5 -12 2 9 2 23 0 30 -3 6 -5 -1 -5 -18z"/>
<path d="M5165 2140 c-3 -5 -1 -10 4 -10 6 0 11 5 11 10 0 6 -2 10 -4 10 -3 0
-8 -4 -11 -10z"/>
<path d="M6043 2075 c0 -38 2 -53 4 -32 2 20 2 52 0 70 -2 17 -4 1 -4 -38z"/>
<path d="M6962 2110 c0 -14 2 -19 5 -12 2 6 2 18 0 25 -3 6 -5 1 -5 -13z"/>
<path d="M5173 2085 c0 -22 2 -30 4 -17 2 12 2 30 0 40 -3 9 -5 -1 -4 -23z"/>
<path d="M599 2108 c-6 -20 -6 -39 0 -42 4 -3 7 6 7 20 0 20 -4 32 -7 22z"/>
<path d="M1161 2074 c0 -11 3 -14 6 -6 3 7 2 16 -1 19 -3 4 -6 -2 -5 -13z"/>
<path d="M591 1916 c-1 -73 -4 -178 -6 -232 -5 -108 -15 -374 -20 -549 -2 -60
-6 -193 -10 -295 -4 -102 -4 -183 -1 -180 11 12 25 348 41 1005 4 154 8 304 9
333 1 28 -1 52 -5 52 -4 0 -8 -60 -8 -134z"/>
<path d="M1150 2041 c0 -6 4 -12 8 -15 5 -3 9 1 9 9 0 8 -4 15 -9 15 -4 0 -8
-4 -8 -9z"/>
<path d="M6961 2034 c0 -11 3 -14 6 -6 3 7 2 16 -1 19 -3 4 -6 -2 -5 -13z"/>
<path d="M1150 2001 c0 -6 4 -12 8 -15 5 -3 9 1 9 9 0 8 -4 15 -9 15 -4 0 -8
-4 -8 -9z"/>
<path d="M5178 1983 c12 -2 32 -2 45 0 12 2 2 4 -23 4 -25 0 -35 -2 -22 -4z"/>
<path d="M5250 1986 c0 -2 9 -6 20 -9 11 -3 20 -1 20 4 0 5 -9 9 -20 9 -11 0
-20 -2 -20 -4z"/>
<path d="M5310 1985 c0 -7 30 -13 34 -7 3 4 -4 9 -15 9 -10 1 -19 0 -19 -2z"/>
<path d="M5390 1982 c0 -4 10 -9 22 -9 18 -2 20 0 8 7 -18 12 -30 13 -30 2z"/>
<path d="M5475 1980 c-3 -5 1 -10 10 -10 9 0 13 5 10 10 -3 6 -8 10 -10 10 -2
0 -7 -4 -10 -10z"/>
<path d="M5550 1973 c107 -7 240 -7 240 0 0 4 -64 6 -142 5 -79 -1 -123 -3
-98 -5z"/>
<path d="M5805 1970 c-4 -7 61 -7 68 0 3 3 -10 5 -30 5 -19 1 -36 -2 -38 -5z"/>
<path d="M5890 1968 c0 -9 144 -15 172 -7 13 3 -21 8 -75 10 -53 2 -97 1 -97
-3z"/>
<path d="M6095 1960 c3 -5 8 -10 11 -10 2 0 4 5 4 10 0 6 -5 10 -11 10 -5 0
-7 -4 -4 -10z"/>
<path d="M6952 1894 c-1 -13 0 -24 2 -24 7 0 14 40 7 44 -4 3 -8 -6 -9 -20z"/>
<path d="M6949 1733 c0 -71 -2 -149 -4 -175 -2 -27 -1 -48 3 -48 5 0 9 64 11
143 1 78 3 157 5 175 1 17 -1 32 -6 32 -4 0 -8 -57 -9 -127z"/>
<path d="M5700 1800 c0 -5 5 -10 11 -10 5 0 7 5 4 10 -3 6 -8 10 -11 10 -2 0
-4 -4 -4 -10z"/>
<path d="M5858 1783 c7 -3 16 -2 19 1 4 3 -2 6 -13 5 -11 0 -14 -3 -6 -6z"/>
<path d="M6946 1492 c-4 -7 -10 -162 -21 -517 -2 -60 -7 -202 -10 -315 -4
-113 -5 -203 -2 -200 8 8 22 305 32 700 4 124 8 251 9 283 4 56 2 65 -8 49z"/>
<path d="M271 1018 c0 -9 -4 -25 -7 -35 -5 -14 -4 -15 5 -7 7 7 11 22 8 35 -2
13 -5 16 -6 7z"/>
<path d="M6626 814 c-4 -9 -4 -19 -1 -22 2 -3 7 3 11 12 4 9 4 19 1 22 -2 3
-7 -3 -11 -12z"/>
<path d="M2069 656 c-2 -2 -62 -7 -134 -10 -71 -4 -147 -9 -169 -11 -60 -5
-169 -16 -196 -20 -14 -2 -68 -8 -120 -14 -89 -10 -137 -14 -320 -26 -186 -12
-230 -16 -300 -21 -41 -4 -86 -8 -100 -9 -14 -1 -63 -5 -110 -9 -47 -4 -96 -9
-110 -11 -14 -2 -52 -7 -85 -10 -33 -4 -76 -10 -95 -14 -35 -7 -35 -7 -38 -69
-2 -39 2 -80 12 -110 16 -48 24 -114 35 -302 l2 -25 17 21 c15 17 41 24 152
39 74 9 142 19 150 20 8 1 40 6 70 10 30 3 66 8 80 10 109 15 156 21 240 30
36 4 79 9 95 11 149 19 281 34 335 39 36 3 101 10 145 15 44 5 112 12 150 15
116 9 168 14 205 20 19 2 73 7 120 10 47 3 101 7 120 10 19 2 78 7 130 10 52
3 115 8 140 10 42 3 148 11 295 20 33 2 125 7 205 11 80 4 168 8 195 9 533 27
1715 26 2010 -2 75 -7 791 -16 785 -10 -3 3 -28 8 -55 12 -161 19 -166 22 -40
25 66 2 103 5 83 7 -46 5 -51 20 -5 17 17 -1 96 -5 174 -8 78 -4 161 -8 185
-11 37 -4 39 -3 13 4 -34 11 -74 16 -225 31 -58 5 -125 12 -150 15 -25 2 -81
7 -125 10 -44 3 -102 8 -130 10 -27 2 -95 7 -150 10 -55 3 -129 8 -165 10 -61
5 -168 11 -355 20 -44 2 -118 6 -165 9 -47 3 -141 8 -210 11 -69 3 -174 8
-235 11 -176 9 -235 12 -320 14 -115 2 -65 17 87 27 213 12 1084 6 1628 -12
69 -2 208 -7 310 -10 102 -4 213 -7 247 -9 78 -2 69 10 -12 18 -168 16 -279
24 -420 31 -55 3 -131 7 -170 10 -38 2 -122 7 -185 10 -63 3 -151 8 -195 10
-102 5 -338 16 -675 30 -52 2 -176 7 -275 10 -99 4 -216 8 -260 10 -44 2 -102
5 -130 6 -50 2 -50 2 15 9 50 5 28 7 -90 9 -85 1 -272 4 -415 6 -386 7 -1492
14 -1496 11z"/>
<path d="M544 620 c-1 -16 1 -30 5 -30 3 0 7 14 7 30 1 17 -1 30 -5 30 -3 0
-7 -13 -7 -30z"/>
<path d="M4148 633 c7 -3 16 -2 19 1 4 3 -2 6 -13 5 -11 0 -14 -3 -6 -6z"/>
<path d="M4250 636 c0 -2 9 -6 20 -9 11 -3 18 -1 14 4 -5 9 -34 13 -34 5z"/>
<path d="M4498 623 c7 -3 16 -2 19 1 4 3 -2 6 -13 5 -11 0 -14 -3 -6 -6z"/>
<path d="M4608 623 c23 -2 59 -2 80 0 20 2 1 4 -43 4 -44 0 -61 -2 -37 -4z"/>
<path d="M4738 623 c7 -3 16 -2 19 1 4 3 -2 6 -13 5 -11 0 -14 -3 -6 -6z"/>
<path d="M4776 618 c3 -4 11 -5 19 -1 21 7 19 12 -4 10 -11 0 -18 -5 -15 -9z"/>
<path d="M4826 622 c-2 -4 4 -8 14 -8 10 0 16 4 14 8 -3 4 -9 8 -14 8 -5 0
-11 -4 -14 -8z"/>
<path d="M4876 622 c-3 -5 1 -9 9 -9 8 0 12 4 9 9 -3 4 -7 8 -9 8 -2 0 -6 -4
-9 -8z"/>
<path d="M4915 620 c-3 -5 1 -10 10 -10 9 0 13 5 10 10 -3 6 -8 10 -10 10 -2
0 -7 -4 -10 -10z"/>
<path d="M4950 617 c3 -2 109 -8 235 -12 127 -3 277 -8 335 -10 58 -2 179 -6
270 -9 246 -8 486 -17 568 -20 39 -2 72 0 72 4 0 4 -30 8 -67 10 -38 1 -93 4
-123 5 -369 18 -1299 41 -1290 32z"/>
<path d="M6463 563 c15 -2 37 -2 50 0 12 2 0 4 -28 4 -27 0 -38 -2 -22 -4z"/>
<path d="M6450 489 c0 -5 11 -9 25 -9 14 0 25 2 25 4 0 2 -11 6 -25 8 -14 3
-25 1 -25 -3z"/>
<path d="M6903 414 c-2 -43 4 -41 12 4 3 18 2 32 -2 32 -5 0 -9 -16 -10 -36z"/>
<path d="M6070 279 c0 -5 9 -9 20 -9 11 0 20 2 20 4 0 2 -9 6 -20 9 -11 3 -20
1 -20 -4z"/>
</g>
</svg>
